<svg xmlns="http://www.w3.org/2000/svg" viewBox="0 0 168 168" fill="#2B76F5" x="0px" y="0px">
<path fill-rule="evenodd" clip-rule="evenodd"  fill="#2B76F5" d="M83.9414 24.5431C50.6312 24.5431 24.6878 47.174 24.6878 73.8902C24.6878 85.4657 29.4845 96.1807 37.6575 104.686L35.1443 107.101L37.6575 104.686C41.3861 108.566 45.8148 111.981 50.7978 114.79C52.4747 115.735 53.0679 117.861 52.1227 119.538C51.1776 121.215 49.0519 121.808 47.3749 120.863C41.8278 117.736 36.8527 113.909 32.6311 109.516C23.3655 99.8739 17.7168 87.4786 17.7168 73.8902C17.7168 42.2494 47.9519 17.5721 83.9414 17.5721C119.931 17.5721 150.166 42.2494 150.166 73.8902C150.166 105.258 120.451 129.782 84.8725 130.203L50.8088 149.566C49.1352 150.517 47.0074 149.932 46.0562 148.258C45.1049 146.585 45.6904 144.457 47.3639 143.506L82.219 123.693C82.744 123.395 83.3375 123.238 83.9414 123.238C117.252 123.238 143.195 100.607 143.195 73.8902C143.195 47.174 117.252 24.5431 83.9414 24.5431Z"/>
</svg>